<?xml version="1.0" standalone="no"?>
<!DOCTYPE svg PUBLIC "-//W3C//DTD SVG 20010904//EN"
 "http://www.w3.org/TR/2001/REC-SVG-20010904/DTD/svg10.dtd">
<svg version="1.0" xmlns="http://www.w3.org/2000/svg"
 width="900.000000pt" height="800.000000pt" viewBox="0 0 900.000000 800.000000"
 preserveAspectRatio="xMidYMid meet">

<g transform="translate(0.000000,800.000000) scale(0.100000,-0.100000)"
fill="#000000" stroke="none">
<path d="M4435 7801 c-109 -29 -193 -105 -225 -205 -20 -62 -15 -165 10 -225
28 -65 112 -143 176 -165 56 -19 157 -21 205 -4 43 14 118 65 144 97 43 53 58
95 62 183 5 84 4 91 -27 153 -34 68 -73 106 -148 144 -47 24 -148 35 -197 22z"/>
<path d="M3458 7679 c-218 -32 -690 -254 -1091 -512 -48 -31 -92 -57 -97 -57
-17 0 -11 -36 11 -64 39 -50 165 -109 289 -137 112 -24 367 -18 540 14 215 39
233 41 228 27 -4 -13 -55 -36 -170 -76 -43 -15 -78 -29 -78 -33 1 -3 26 -24
57 -46 159 -114 145 -107 193 -101 25 3 101 13 170 21 121 16 177 14 165 -5
-3 -5 -27 -16 -53 -24 -26 -8 -67 -23 -92 -34 l-45 -19 40 -17 c22 -8 47 -20
55 -26 8 -5 29 -17 45 -26 17 -9 50 -33 74 -53 42 -33 49 -35 105 -33 34 2 83
8 110 13 99 18 116 4 39 -32 l-48 -22 55 -9 c30 -4 157 -7 283 -6 197 3 226 5
221 18 -3 8 -10 29 -15 45 -5 17 -28 64 -51 105 l-43 75 -85 11 c-111 14 -135
20 -198 51 -102 50 -172 144 -202 273 -14 56 -16 153 -9 360 3 82 0 126 -10
155 -50 143 -177 196 -393 164z"/>
<path d="M5337 7679 c-93 -22 -165 -86 -187 -168 -5 -20 -9 -138 -8 -261 2
-207 0 -230 -20 -291 -51 -153 -160 -245 -326 -274 -49 -8 -101 -15 -116 -15
-33 0 -61 -38 -114 -158 -20 -46 -36 -84 -36 -85 0 -7 474 -6 515 1 l50 8 -47
24 c-48 24 -61 40 -34 40 16 0 151 -17 202 -25 26 -5 41 2 83 36 29 22 89 60
135 84 l82 43 -80 27 c-87 30 -109 42 -100 56 8 13 44 11 211 -12 l152 -22 43
26 c24 14 57 38 73 53 17 14 47 38 69 52 l38 26 -28 9 c-16 5 -42 15 -59 22
-16 7 -48 18 -70 25 -59 18 -105 41 -105 52 0 11 49 5 235 -30 114 -21 171
-26 310 -26 167 -1 216 5 323 40 97 32 183 87 207 134 l15 29 -63 37 c-34 20
-69 43 -77 49 -34 28 -346 203 -501 281 -364 182 -611 251 -772 213z"/>
<path d="M4286 7171 c-12 -19 21 -76 63 -113 40 -34 103 -58 154 -58 79 0 194
69 215 128 17 50 3 57 -75 39 -116 -28 -144 -29 -223 -12 -116 26 -127 28
-134 16z"/>
<path d="M2050 7014 c-58 -19 -130 -41 -160 -48 -726 -186 -1130 -268 -1532
-312 -96 -11 -158 -22 -158 -28 0 -6 16 -32 34 -57 71 -97 251 -183 437 -209
110 -16 450 -7 579 15 157 26 328 62 453 94 136 36 353 99 382 111 11 5 54 19
95 31 41 12 107 34 145 49 39 16 135 53 215 84 80 31 151 60 158 65 8 5 -28
10 -90 14 -225 13 -394 90 -429 194 -6 18 -14 33 -17 32 -4 0 -54 -16 -112
-35z"/>
<path d="M6826 7025 c-10 -39 -74 -104 -130 -132 -73 -37 -186 -63 -305 -70
-90 -5 -100 -8 -80 -18 52 -27 503 -185 654 -229 88 -26 171 -51 185 -56 85
-31 519 -126 665 -146 28 -4 59 -9 70 -11 11 -2 106 -7 210 -10 171 -5 198 -4
273 15 103 26 188 63 272 118 62 41 169 139 159 147 -2 2 -72 12 -156 21 -135
14 -342 47 -578 90 -131 23 -660 143 -800 180 -71 19 -197 55 -279 80 -82 25
-150 46 -152 46 -1 0 -5 -11 -8 -25z"/>
<path d="M4444 6960 c-17 -6 -36 -16 -42 -23 -6 -7 -12 -56 -12 -107 l-1 -95
56 -108 c31 -60 58 -107 60 -105 1 2 28 51 59 110 56 106 56 106 56 195 0 80
-2 92 -22 111 -27 24 -107 36 -154 22z"/>
<path d="M2860 6821 c-14 -5 -61 -26 -106 -49 -128 -64 -423 -181 -594 -233
-430 -134 -870 -242 -1070 -264 -122 -13 -132 -16 -119 -32 35 -42 179 -90
349 -118 141 -23 395 -30 520 -16 235 28 433 81 689 183 210 84 483 228 644
340 l28 20 -38 20 c-20 11 -66 47 -102 78 -77 70 -135 91 -201 71z"/>
<path d="M6040 6813 c-25 -8 -74 -41 -112 -74 -37 -33 -81 -65 -98 -73 l-31
-13 58 -39 c223 -150 563 -309 871 -408 365 -117 703 -134 1032 -51 92 23 236
77 253 94 10 10 -9 15 -163 36 -139 20 -209 35 -513 111 -385 96 -789 235
-1087 375 -70 32 -135 59 -146 59 -10 -1 -39 -8 -64 -17z"/>
<path d="M4295 6761 c-3 -5 -1 -12 5 -16 5 -3 10 1 10 9 0 18 -6 21 -15 7z"/>
<path d="M4690 6760 c0 -6 7 -10 15 -10 8 0 15 2 15 4 0 2 -7 6 -15 10 -8 3
-15 1 -15 -4z"/>
<path d="M3255 6584 c-11 -8 -65 -41 -120 -72 -395 -222 -812 -385 -1155 -451
l-95 -18 50 -32 c104 -66 311 -108 475 -96 122 9 252 32 350 61 70 22 412 170
445 194 6 4 35 21 65 37 99 54 365 202 380 212 12 8 11 13 -5 31 -11 12 -40
34 -65 48 -25 14 -47 29 -50 32 -8 9 -92 47 -129 59 -48 16 -123 13 -146 -5z"/>
<path d="M5598 6590 c-69 -21 -258 -137 -258 -159 0 -6 12 -13 135 -81 33 -18
111 -62 173 -97 169 -95 454 -229 570 -268 171 -57 392 -84 549 -65 120 15
231 49 298 91 l50 32 -110 23 c-60 13 -131 28 -157 33 -49 11 -203 61 -323
106 -38 15 -81 30 -95 35 -111 34 -594 278 -679 342 -25 19 -103 23 -153 8z"/>
<path d="M3651 6359 c-35 -23 -91 -55 -125 -74 -33 -18 -95 -50 -136 -72 -172
-93 -447 -227 -546 -267 -43 -18 -53 -25 -38 -29 34 -10 187 -36 237 -40 l48
-5 34 53 c46 73 70 99 140 154 149 117 335 205 499 236 91 17 280 23 351 11
34 -6 44 -4 60 13 18 21 18 21 -41 21 -55 0 -312 23 -386 34 -26 4 -46 -3 -97
-35z"/>
<path d="M5249 6396 c-5 -5 -301 -34 -381 -38 -53 -2 -59 -9 -27 -32 16 -11
28 -12 46 -5 83 31 317 14 484 -36 87 -26 213 -86 283 -135 66 -46 155 -139
202 -210 l43 -66 58 3 c53 4 192 27 237 40 12 3 -27 25 -122 68 -117 52 -487
238 -612 308 -84 47 -127 72 -149 89 -22 17 -52 23 -62 14z"/>
<path d="M4341 6359 c-24 -5 -62 -20 -84 -35 l-39 -26 53 -31 c30 -16 78 -53
107 -81 29 -28 57 -52 62 -54 12 -4 40 127 40 187 l0 51 -47 -1 c-27 -1 -68
-5 -92 -10z"/>
<path d="M4527 6363 c-18 -17 1 -161 29 -224 l16 -37 63 63 c34 34 84 75 110
91 l48 28 -36 32 c-25 21 -56 35 -94 43 -63 12 -126 14 -136 4z"/>
<path d="M4000 6283 c-279 -24 -461 -84 -638 -210 -96 -68 -187 -202 -226
-333 -26 -87 -32 -269 -12 -369 39 -190 169 -352 387 -482 199 -117 387 -165
749 -189 85 -5 232 -14 325 -20 317 -20 491 -76 612 -196 83 -83 117 -219 75
-300 -44 -84 -146 -152 -315 -208 l-67 -23 42 -13 c73 -23 240 -107 293 -148
42 -32 54 -37 70 -28 244 137 358 344 326 591 -40 294 -228 494 -575 610 -165
55 -324 79 -621 90 -395 16 -665 91 -821 228 -95 83 -118 153 -103 304 14 139
38 197 108 263 110 104 185 122 322 74 65 -22 86 -25 169 -21 124 6 224 42
275 98 19 22 35 43 35 48 0 9 -39 59 -70 91 -44 44 -111 91 -164 114 -64 28
-106 35 -176 29z m100 -83 c15 -28 -4 -62 -33 -58 -16 2 -23 11 -25 32 -5 44
38 64 58 26z"/>
<path d="M4910 6278 c-74 -13 -203 -97 -265 -172 -38 -47 -38 -47 -22 -80 20
-42 82 -79 178 -106 100 -27 189 -26 286 5 144 46 224 26 333 -84 46 -46 59
-67 73 -116 44 -161 43 -285 -4 -361 -57 -94 -242 -202 -422 -249 -54 -14
-101 -25 -105 -25 -4 0 47 -23 113 -50 179 -75 251 -109 356 -169 25 -14 30
-13 105 34 69 43 217 177 266 242 130 169 144 503 30 718 -82 156 -245 286
-437 348 -144 47 -393 81 -485 65z m61 -68 c31 -17 18 -70 -17 -70 -14 0 -44
27 -44 40 0 9 28 40 36 40 3 0 14 -5 25 -10z"/>
<path d="M4494 6084 c-4 -10 -29 -70 -56 -133 l-48 -114 0 -348 0 -349 108 0
109 0 6 197 c4 108 7 262 7 343 l0 147 -55 134 c-31 73 -58 135 -60 137 -3 3
-8 -4 -11 -14z"/>
<path d="M5940 5800 c0 -5 5 -10 11 -10 5 0 7 5 4 10 -3 6 -8 10 -11 10 -2 0
-4 -4 -4 -10z"/>
<path d="M3060 5790 c0 -5 5 -10 10 -10 6 0 10 5 10 10 0 6 -4 10 -10 10 -5 0
-10 -4 -10 -10z"/>
<path d="M5495 4801 c-19 -8 -19 -8 1 -19 17 -9 20 -7 20 9 0 10 0 19 -1 18 0
0 -9 -4 -20 -8z"/>
<path d="M3500 4790 c0 -5 7 -10 15 -10 8 0 15 5 15 10 0 6 -7 10 -15 10 -8 0
-15 -4 -15 -10z"/>
<path d="M3560 4718 c-78 -82 -143 -225 -161 -356 -44 -317 146 -560 537 -686
157 -51 268 -65 554 -70 288 -6 398 -34 502 -126 85 -75 132 -240 92 -326 -10
-21 -31 -51 -48 -67 -34 -31 -120 -74 -166 -83 -16 -4 -30 -9 -30 -13 0 -3 33
-21 73 -40 39 -18 107 -54 150 -78 l78 -45 37 25 c90 60 161 158 188 261 18
67 17 195 -1 276 -30 127 -125 280 -216 345 -97 71 -171 108 -279 138 -99 28
-170 37 -344 42 -172 6 -279 17 -371 36 -171 37 -317 113 -386 201 -32 40 -34
46 -34 123 1 88 12 118 72 193 38 46 84 79 173 123 62 31 63 30 -63 53 -97 18
-211 53 -278 85 -23 12 -44 21 -45 21 -2 0 -17 -15 -34 -32z"/>
<path d="M4400 4300 l0 -310 100 0 100 0 0 310 0 310 -100 0 -100 0 0 -310z"/>
<path d="M3695 3680 c3 -5 8 -10 11 -10 2 0 4 5 4 10 0 6 -5 10 -11 10 -5 0
-7 -4 -4 -10z"/>
<path d="M5305 3680 c3 -5 10 -10 16 -10 5 0 9 5 9 10 0 6 -7 10 -16 10 -8 0
-12 -4 -9 -10z"/>
<path d="M3753 3612 c-118 -174 -147 -410 -70 -573 66 -142 205 -243 405 -296
85 -22 128 -26 337 -33 206 -6 250 -10 307 -29 128 -41 219 -165 222 -302 2
-104 -66 -192 -195 -256 -35 -17 -71 -33 -79 -35 -8 -3 17 -15 55 -27 39 -12
96 -36 128 -52 56 -28 59 -28 89 -13 45 23 140 124 172 184 55 102 68 198 42
321 -45 212 -211 377 -436 434 -37 9 -142 20 -247 25 -248 13 -367 39 -463
100 -67 43 -93 84 -98 151 -9 126 53 245 168 320 l25 16 -35 7 c-48 10 -172
53 -238 82 -30 13 -55 24 -56 24 0 0 -15 -22 -33 -48z"/>
<path d="M4410 3271 l0 -270 84 -3 84 -3 6 59 c3 32 6 155 6 272 l0 214 -90 0
-90 0 0 -269z"/>
<path d="M5135 2750 c3 -5 10 -10 16 -10 5 0 9 5 9 10 0 6 -7 10 -16 10 -8 0
-12 -4 -9 -10z"/>
<path d="M3855 2739 c-11 -17 1 -21 15 -4 8 9 8 15 2 15 -6 0 -14 -5 -17 -11z"/>
<path d="M3926 2682 c-167 -266 -83 -571 199 -719 100 -52 199 -80 334 -93
277 -27 371 -92 371 -257 0 -109 -49 -179 -175 -249 l-56 -31 33 -13 c18 -7
53 -22 77 -33 l44 -20 44 23 c24 13 64 45 87 71 137 153 139 388 5 534 -81 88
-182 129 -394 161 -284 42 -455 182 -430 353 9 61 44 138 85 184 18 21 31 39
29 41 -2 1 -24 8 -49 15 -25 7 -75 26 -113 42 l-67 28 -24 -37z"/>
<path d="M4427 2664 c-9 -9 -9 -118 0 -352 l6 -182 69 0 68 0 1 143 c1 78 2
198 3 267 l1 125 -70 3 c-39 1 -74 0 -78 -4z"/>
<path d="M4093 1847 c-81 -120 -82 -304 -2 -429 68 -105 161 -163 354 -219
127 -36 135 -40 192 -85 146 -119 128 -413 -30 -485 -83 -37 -79 -52 -71 237
l7 255 -44 -3 -44 -3 2 -125 c1 -69 4 -180 8 -247 6 -120 5 -123 -15 -123 -51
0 -111 53 -145 130 -15 33 -20 66 -20 130 0 100 27 172 81 220 19 16 34 33 34
38 0 5 -23 19 -50 30 l-51 21 -33 -52 c-46 -72 -59 -119 -60 -212 0 -89 20
-172 56 -225 33 -48 101 -92 154 -98 25 -2 46 -8 48 -11 3 -4 9 -85 16 -181 6
-96 15 -179 19 -183 9 -9 21 97 21 189 0 34 3 89 6 123 l7 61 51 0 c40 0 63 7
97 28 88 57 131 154 133 302 0 75 -3 93 -30 150 -18 38 -51 85 -80 113 -47 46
-157 107 -219 121 -47 11 -166 72 -208 107 -21 17 -47 49 -59 72 -29 58 -35
155 -14 212 17 43 74 105 99 105 21 1 -17 18 -98 45 -42 14 -80 25 -84 25 -3
0 -16 -15 -28 -33z"/>
<path d="M4439 1793 c-2 -62 3 -418 6 -421 7 -7 95 -10 99 -4 2 4 8 105 12
225 l7 217 -62 0 c-51 0 -61 -3 -62 -17z"/>
<path d="M4196 1202 c-3 -5 1 -9 9 -9 8 0 15 4 15 9 0 4 -4 8 -9 8 -6 0 -12
-4 -15 -8z"/>
<path d="M4800 1201 c0 -6 5 -13 10 -16 6 -3 10 1 10 9 0 9 -4 16 -10 16 -5 0
-10 -4 -10 -9z"/>
<path d="M4595 520 c-3 -5 -1 -10 4 -10 6 0 11 5 11 10 0 6 -2 10 -4 10 -3 0
-8 -4 -11 -10z"/>
</g>
</svg>
